<svg width="42" height="42" viewBox="0 0 42 42" fill="none" xmlns="http://www.w3.org/2000/svg">
<circle cx="21" cy="21" r="19.5" stroke="white" stroke-width="3"/>
<mask id="path-2-inside-1_106_373" fill="white">
<path fill-rule="evenodd" clip-rule="evenodd" d="M21.0002 15C22.1048 15 23.0002 14.1046 23.0002 13C23.0002 11.8954 22.1048 11 21.0002 11C19.8956 11 19.0002 11.8954 19.0002 13C19.0002 14.1046 19.8956 15 21.0002 15ZM12.0301 15.7575C12.164 15.2217 12.707 14.8959 13.2428 15.0299C15.1716 15.5121 18.69 16 21.0002 16C23.3104 16 26.8288 15.5121 28.7577 15.0299C29.2935 14.8959 29.8364 15.2217 29.9703 15.7575C30.1043 16.2933 29.7785 16.8362 29.2427 16.9701C27.9122 17.3028 25.917 17.633 24.0002 17.8267V21C24.0002 23.3103 24.4881 27.8289 24.9703 29.7577C25.1043 30.2935 24.7785 30.8364 24.2427 30.9704C23.7069 31.1043 23.164 30.7786 23.0301 30.2428C22.6827 28.8534 22.3379 26.2892 22.1486 24H19.8521C19.6627 26.2892 19.3179 28.8534 18.9706 30.2428C18.8367 30.7786 18.2937 31.1043 17.7579 30.9704C17.2222 30.8364 16.8964 30.2935 17.0303 29.7577C17.5064 27.8535 17.988 23.4253 18.0002 21.0897V17.8267C16.0834 17.633 14.0882 17.3028 12.7577 16.9701C12.2219 16.8362 11.8961 16.2933 12.0301 15.7575Z"/>
</mask>
<path fill-rule="evenodd" clip-rule="evenodd" d="M21.0002 15C22.1048 15 23.0002 14.1046 23.0002 13C23.0002 11.8954 22.1048 11 21.0002 11C19.8956 11 19.0002 11.8954 19.0002 13C19.0002 14.1046 19.8956 15 21.0002 15ZM12.0301 15.7575C12.164 15.2217 12.707 14.8959 13.2428 15.0299C15.1716 15.5121 18.69 16 21.0002 16C23.3104 16 26.8288 15.5121 28.7577 15.0299C29.2935 14.8959 29.8364 15.2217 29.9703 15.7575C30.1043 16.2933 29.7785 16.8362 29.2427 16.9701C27.9122 17.3028 25.917 17.633 24.0002 17.8267V21C24.0002 23.3103 24.4881 27.8289 24.9703 29.7577C25.1043 30.2935 24.7785 30.8364 24.2427 30.9704C23.7069 31.1043 23.164 30.7786 23.0301 30.2428C22.6827 28.8534 22.3379 26.2892 22.1486 24H19.8521C19.6627 26.2892 19.3179 28.8534 18.9706 30.2428C18.8367 30.7786 18.2937 31.1043 17.7579 30.9704C17.2222 30.8364 16.8964 30.2935 17.0303 29.7577C17.5064 27.8535 17.988 23.4253 18.0002 21.0897V17.8267C16.0834 17.633 14.0882 17.3028 12.7577 16.9701C12.2219 16.8362 11.8961 16.2933 12.0301 15.7575Z" fill="white"/>
<path d="M12.0301 15.7575L14.9405 16.4851L14.9405 16.4851L12.0301 15.7575ZM13.2428 15.0299L13.9704 12.1194L13.9704 12.1194L13.2428 15.0299ZM28.7577 15.0299L29.4853 17.9403L29.4854 17.9403L28.7577 15.0299ZM29.9703 15.7575L27.0599 16.4848L27.06 16.4853L29.9703 15.7575ZM29.2427 16.9701L28.5152 14.0597L28.5151 14.0597L29.2427 16.9701ZM24.0002 17.8267L23.6987 14.8419L21.0002 15.1146V17.8267H24.0002ZM24.9703 29.7577L22.0599 30.4853L22.06 30.4856L24.9703 29.7577ZM24.2427 30.9704L24.9701 33.8809L24.9706 33.8808L24.2427 30.9704ZM23.0301 30.2428L25.9406 29.5154L25.9405 29.5151L23.0301 30.2428ZM22.1486 24L25.1384 23.7528L24.9108 21H22.1486V24ZM19.8521 24V21H17.0901L16.8624 23.7526L19.8521 24ZM18.9706 30.2428L21.8811 30.9704L21.8811 30.9703L18.9706 30.2428ZM17.7579 30.9704L17.0301 33.8808L17.0306 33.8809L17.7579 30.9704ZM17.0303 29.7577L14.1199 29.0301L14.1199 29.0301L17.0303 29.7577ZM18.0002 21.0897L21.0002 21.1054L21.0002 21.0975V21.0897H18.0002ZM18.0002 17.8267H21.0002V15.1145L18.3018 14.8419L18.0002 17.8267ZM12.7577 16.9701L13.4853 14.0597L13.4853 14.0597L12.7577 16.9701ZM21.0002 18C23.7617 18 26.0002 15.7614 26.0002 13H20.0002C20.0002 12.4477 20.448 12 21.0002 12V18ZM26.0002 13C26.0002 10.2386 23.7617 8 21.0002 8V14C20.448 14 20.0002 13.5523 20.0002 13H26.0002ZM21.0002 8C18.2388 8 16.0002 10.2386 16.0002 13H22.0002C22.0002 13.5523 21.5525 14 21.0002 14V8ZM16.0002 13C16.0002 15.7614 18.2388 18 21.0002 18V12C21.5525 12 22.0002 12.4477 22.0002 13H16.0002ZM14.9405 16.4851C14.6726 17.5566 13.5868 18.2082 12.5152 17.9403L13.9704 12.1194C11.8272 11.5836 9.65546 12.8867 9.11967 15.0299L14.9405 16.4851ZM12.5152 17.9403C14.6575 18.4759 18.4207 19 21.0002 19V13C18.9593 13 15.6857 12.5483 13.9704 12.1194L12.5152 17.9403ZM21.0002 19C23.5797 19 27.343 18.4759 29.4853 17.9403L28.0302 12.1194C26.3147 12.5483 23.0412 13 21.0002 13V19ZM29.4854 17.9403C28.4137 18.2082 27.3277 17.5566 27.0599 16.4848L32.8808 15.0301C32.3452 12.8867 30.1733 11.5836 28.0301 12.1194L29.4854 17.9403ZM27.06 16.4853C26.7919 15.4134 27.4438 14.3275 28.5152 14.0597L29.9703 19.8806C32.1133 19.3449 33.4168 17.1731 32.8807 15.0296L27.06 16.4853ZM28.5151 14.0597C27.3619 14.348 25.5159 14.6583 23.6987 14.8419L24.3018 20.8115C26.3182 20.6078 28.4626 20.2575 29.9704 19.8805L28.5151 14.0597ZM21.0002 17.8267V21H27.0002V17.8267H21.0002ZM21.0002 21C21.0002 23.4999 21.5061 28.27 22.0599 30.4853L27.8808 29.0301C27.4702 27.3878 27.0002 23.1207 27.0002 21H21.0002ZM22.06 30.4856C21.7918 29.4134 22.4439 28.3279 23.5149 28.06L24.9706 33.8808C27.1132 33.3449 28.4168 31.1736 27.8807 29.0298L22.06 30.4856ZM23.5154 28.0599C24.5865 27.7922 25.6727 28.4433 25.9406 29.5154L20.1197 30.9702C20.6554 33.1139 22.8274 34.4164 24.9701 33.8809L23.5154 28.0599ZM25.9405 29.5151C25.6535 28.3669 25.3241 25.9974 25.1384 23.7528L19.1588 24.2472C19.3518 26.581 19.712 29.3399 20.1197 30.9705L25.9405 29.5151ZM22.1486 21H19.8521V27H22.1486V21ZM16.8624 23.7526C16.6766 25.9973 16.3472 28.3669 16.0602 29.5153L21.8811 30.9703C22.2887 29.3399 22.6488 26.5811 22.8419 24.2474L16.8624 23.7526ZM16.0602 29.5152C16.3282 28.4433 17.4142 27.7922 18.4853 28.0599L17.0306 33.8809C19.1733 34.4164 21.3452 33.1139 21.8811 30.9704L16.0602 29.5152ZM18.4858 28.06C19.557 28.3279 20.2087 29.4136 19.9408 30.4853L14.1199 29.0301C13.5841 31.1734 14.8873 33.3449 17.0301 33.8808L18.4858 28.06ZM19.9408 30.4853C20.4885 28.2942 20.9871 23.6181 21.0002 21.1054L15.0003 21.074C14.989 23.2325 14.5242 27.4128 14.1199 29.0301L19.9408 30.4853ZM21.0002 21.0897V17.8267H15.0002V21.0897H21.0002ZM18.3018 14.8419C16.4846 14.6583 14.6386 14.348 13.4853 14.0597L12.0301 19.8806C13.5379 20.2575 15.6823 20.6078 17.6987 20.8115L18.3018 14.8419ZM13.4853 14.0597C14.5569 14.3276 15.2084 15.4135 14.9405 16.4851L9.11967 15.0298C8.58387 17.173 9.88691 19.3448 12.0301 19.8806L13.4853 14.0597Z" fill="white" mask="url(#path-2-inside-1_106_373)"/>
</svg>
