<svg width="42" height="42" viewBox="0 0 42 42" fill="none" xmlns="http://www.w3.org/2000/svg">
<circle cx="21" cy="21" r="19.5" stroke="white" stroke-width="3"/>
<mask id="path-2-inside-1_101_797" fill="white">
<path fill-rule="evenodd" clip-rule="evenodd" d="M21 15C22.1046 15 23 14.1046 23 13C23 11.8954 22.1046 11 21 11C19.8954 11 19 11.8954 19 13C19 14.1046 19.8954 15 21 15ZM12.0299 15.7575C12.1638 15.2217 12.7067 14.8959 13.2425 15.0299C15.1714 15.5121 18.6898 16 21 16C23.3102 16 26.8286 15.5121 28.7575 15.0299C29.2933 14.8959 29.8362 15.2217 29.9701 15.7575C30.1041 16.2933 29.7783 16.8362 29.2425 16.9701C27.912 17.3028 25.9168 17.633 24 17.8267V21C24 23.3103 24.4879 27.8289 24.9701 29.7577C25.1041 30.2935 24.7783 30.8364 24.2425 30.9704C23.7067 31.1043 23.1638 30.7786 23.0299 30.2428C22.6825 28.8534 22.3377 26.2892 22.1484 24H19.8519C19.6625 26.2892 19.3177 28.8534 18.9704 30.2428C18.8364 30.7786 18.2935 31.1043 17.7577 30.9704C17.2219 30.8364 16.8962 30.2935 17.0301 29.7577C17.5062 27.8535 17.9878 23.4253 18 21.0897V17.8267C16.0832 17.633 14.088 17.3028 12.7575 16.9701C12.2217 16.8362 11.8959 16.2933 12.0299 15.7575Z"/>
</mask>
<path fill-rule="evenodd" clip-rule="evenodd" d="M21 15C22.1046 15 23 14.1046 23 13C23 11.8954 22.1046 11 21 11C19.8954 11 19 11.8954 19 13C19 14.1046 19.8954 15 21 15ZM12.0299 15.7575C12.1638 15.2217 12.7067 14.8959 13.2425 15.0299C15.1714 15.5121 18.6898 16 21 16C23.3102 16 26.8286 15.5121 28.7575 15.0299C29.2933 14.8959 29.8362 15.2217 29.9701 15.7575C30.1041 16.2933 29.7783 16.8362 29.2425 16.9701C27.912 17.3028 25.9168 17.633 24 17.8267V21C24 23.3103 24.4879 27.8289 24.9701 29.7577C25.1041 30.2935 24.7783 30.8364 24.2425 30.9704C23.7067 31.1043 23.1638 30.7786 23.0299 30.2428C22.6825 28.8534 22.3377 26.2892 22.1484 24H19.8519C19.6625 26.2892 19.3177 28.8534 18.9704 30.2428C18.8364 30.7786 18.2935 31.1043 17.7577 30.9704C17.2219 30.8364 16.8962 30.2935 17.0301 29.7577C17.5062 27.8535 17.9878 23.4253 18 21.0897V17.8267C16.0832 17.633 14.088 17.3028 12.7575 16.9701C12.2217 16.8362 11.8959 16.2933 12.0299 15.7575Z" fill="white"/>
<path d="M12.0299 15.7575L14.9403 16.4851L14.9403 16.4851L12.0299 15.7575ZM13.2425 15.0299L13.9701 12.1194L13.9701 12.1194L13.2425 15.0299ZM28.7575 15.0299L29.4851 17.9403L29.4851 17.9403L28.7575 15.0299ZM29.9701 15.7575L27.0596 16.4848L27.0597 16.4853L29.9701 15.7575ZM29.2425 16.9701L28.5149 14.0597L28.5149 14.0597L29.2425 16.9701ZM24 17.8267L23.6984 14.8419L21 15.1146V17.8267H24ZM24.9701 29.7577L22.0597 30.4853L22.0597 30.4856L24.9701 29.7577ZM24.2425 30.9704L24.9699 33.8809L24.9704 33.8808L24.2425 30.9704ZM23.0299 30.2428L25.9404 29.5154L25.9403 29.5151L23.0299 30.2428ZM22.1484 24L25.1382 23.7528L24.9106 21H22.1484V24ZM19.8519 24V21H17.0899L16.8621 23.7526L19.8519 24ZM18.9704 30.2428L21.8808 30.9704L21.8808 30.9703L18.9704 30.2428ZM17.7577 30.9704L17.0298 33.8808L17.0303 33.8809L17.7577 30.9704ZM17.0301 29.7577L14.1197 29.0301L14.1197 29.0301L17.0301 29.7577ZM18 21.0897L21 21.1054L21 21.0975V21.0897H18ZM18 17.8267H21V15.1145L18.3016 14.8419L18 17.8267ZM12.7575 16.9701L13.4851 14.0597L13.485 14.0597L12.7575 16.9701ZM21 18C23.7615 18 26 15.7614 26 13H20C20 12.4477 20.4477 12 21 12V18ZM26 13C26 10.2386 23.7615 8 21 8V14C20.4477 14 20 13.5523 20 13H26ZM21 8C18.2385 8 16 10.2386 16 13H22C22 13.5523 21.5523 14 21 14V8ZM16 13C16 15.7614 18.2385 18 21 18V12C21.5523 12 22 12.4477 22 13H16ZM14.9403 16.4851C14.6724 17.5566 13.5865 18.2082 12.5149 17.9403L13.9701 12.1194C11.8269 11.5836 9.65522 12.8867 9.11942 15.0299L14.9403 16.4851ZM12.5149 17.9403C14.6572 18.4759 18.4205 19 21 19V13C18.959 13 15.6855 12.5483 13.9701 12.1194L12.5149 17.9403ZM21 19C23.5795 19 27.3427 18.4759 29.4851 17.9403L28.0299 12.1194C26.3145 12.5483 23.0409 13 21 13V19ZM29.4851 17.9403C28.4135 18.2082 27.3275 17.5566 27.0596 16.4848L32.8806 15.0301C32.3449 12.8867 30.1731 11.5836 28.0299 12.1194L29.4851 17.9403ZM27.0597 16.4853C26.7916 15.4134 27.4435 14.3275 28.5149 14.0597L29.9701 19.8806C32.1131 19.3449 33.4166 17.1731 32.8805 15.0296L27.0597 16.4853ZM28.5149 14.0597C27.3617 14.348 25.5157 14.6583 23.6984 14.8419L24.3016 20.8115C26.3179 20.6078 28.4623 20.2575 29.9701 19.8805L28.5149 14.0597ZM21 17.8267V21H27V17.8267H21ZM21 21C21 23.4999 21.5059 28.27 22.0597 30.4853L27.8805 29.0301C27.4699 27.3878 27 23.1207 27 21H21ZM22.0597 30.4856C21.7916 29.4134 22.4437 28.3279 23.5146 28.06L24.9704 33.8808C27.1129 33.3449 28.4166 31.1736 27.8805 29.0298L22.0597 30.4856ZM23.5151 28.0599C24.5863 27.7922 25.6725 28.4433 25.9404 29.5154L20.1194 30.9702C20.6551 33.1139 22.8271 34.4164 24.9699 33.8809L23.5151 28.0599ZM25.9403 29.5151C25.6532 28.3669 25.3238 25.9974 25.1382 23.7528L19.1586 24.2472C19.3516 26.581 19.7118 29.3399 20.1195 30.9705L25.9403 29.5151ZM22.1484 21H19.8519V27H22.1484V21ZM16.8621 23.7526C16.6764 25.9973 16.347 28.3669 16.0599 29.5153L21.8808 30.9703C22.2884 29.3399 22.6486 26.5811 22.8417 24.2474L16.8621 23.7526ZM16.06 29.5152C16.3279 28.4433 17.4139 27.7922 18.4851 28.0599L17.0303 33.8809C19.1731 34.4164 21.3449 33.1139 21.8808 30.9704L16.06 29.5152ZM18.4856 28.06C19.5568 28.3279 20.2084 29.4136 19.9405 30.4853L14.1197 29.0301C13.5839 31.1734 14.887 33.3449 17.0298 33.8808L18.4856 28.06ZM19.9405 30.4853C20.4883 28.2942 20.9868 23.6181 21 21.1054L15 21.074C14.9888 23.2325 14.524 27.4128 14.1197 29.0301L19.9405 30.4853ZM21 21.0897V17.8267H15V21.0897H21ZM18.3016 14.8419C16.4843 14.6583 14.6383 14.348 13.4851 14.0597L12.0298 19.8806C13.5377 20.2575 15.682 20.6078 17.6984 20.8115L18.3016 14.8419ZM13.485 14.0597C14.5567 14.3276 15.2082 15.4135 14.9403 16.4851L9.11943 15.0298C8.58362 17.173 9.88666 19.3448 12.0299 19.8806L13.485 14.0597Z" fill="white" mask="url(#path-2-inside-1_101_797)"/>
</svg>
