<svg width="174" height="43" viewBox="0 0 174 43" fill="none" xmlns="http://www.w3.org/2000/svg">
<g clip-path="url(#clip0_106_71)">
<path fill-rule="evenodd" clip-rule="evenodd" d="M21.0009 1C32.5798 1 42 10.1967 42 21.5009C42 32.8044 32.5798 42 21.0009 42C17.0734 42 13.2622 40.9368 9.93982 38.9205L2.87598 41.128C2.44228 41.2638 1.96435 41.1476 1.64453 40.8266C1.32471 40.5061 1.2151 40.0356 1.36169 39.6097L3.63489 33.0159C1.25442 29.6088 0 25.6412 0 21.5009C0 10.1967 9.4213 1 21.0009 1ZM21.0009 3.38257C10.7569 3.38257 2.42285 11.5107 2.42285 21.5009C2.42285 25.3398 3.64587 29.0114 5.9585 32.1189C6.19171 32.4322 6.25464 32.8372 6.12805 33.2047L4.42603 38.1432L9.74597 36.4807C9.8659 36.4432 9.98959 36.4254 10.1125 36.4254C10.3464 36.4254 10.5777 36.4915 10.7776 36.6201C13.8165 38.581 17.3514 39.6174 21.0009 39.6174C31.2436 39.6174 39.5771 31.4904 39.5771 21.5009C39.5771 11.5107 31.2436 3.38257 21.0009 3.38257ZM12.639 11C13.0333 11 13.4269 11.0457 13.7704 11.0457C14.1169 11.0457 14.6098 10.8621 15.0989 11.9697C15.5917 13.0808 16.7734 15.8099 16.9197 16.0868C17.0691 16.3637 17.1676 16.6864 16.9698 17.0565C16.7733 17.4267 16.6753 17.659 16.379 17.984C16.0846 18.3067 15.7591 18.7045 15.4932 18.9538C15.2006 19.2307 14.8918 19.5305 15.2346 20.0843C15.5805 20.6392 16.7659 22.4532 18.5197 23.9245C20.7743 25.8111 22.6782 26.3984 23.2703 26.6753C23.8611 26.9522 24.2039 26.9076 24.5474 26.5368C24.8933 26.1666 26.0253 24.9171 26.4196 24.3621C26.8107 23.8083 27.2069 23.9016 27.7474 24.0858C28.288 24.2694 31.193 25.6122 31.7838 25.8891C32.3715 26.1666 32.7658 26.3051 32.9146 26.5368C33.0615 26.7662 33.0615 27.8767 32.5686 29.172C32.0758 30.4668 29.6637 31.7169 28.5831 31.8073C28.4847 31.8157 28.3951 31.8296 28.3092 31.846L28.2075 31.8669C27.4027 32.041 26.7359 32.3584 21.496 30.4216C15.4932 28.2017 11.7048 22.4203 11.4091 22.0501C11.3995 22.0382 11.3882 22.024 11.375 22.0075L11.2759 21.8815C10.7246 21.1709 9 18.7807 9 16.3162C9 13.5901 10.5251 12.2472 11.0657 11.6934C11.6056 11.1385 12.2448 11 12.639 11Z" fill="#00A857"/>
</g>
<g clip-path="url(#clip1_106_71)">
<path d="M150.744 12.7821L151.838 3.81089C151.838 3.81089 151.906 1.79478 150.399 1.66919C149.042 1.55666 148.59 3.43736 148.565 3.54508C148.564 3.54854 148.564 3.55151 148.563 3.55504L146.437 14.7404C146.431 14.7929 146.384 14.8317 146.329 14.829L146.141 14.8194C146.088 14.8167 146.046 14.7751 146.044 14.7233C146.017 13.8444 145.802 5.24254 145.688 2.81517C145.648 1.96502 145.469 0.934753 144.086 0.934753C142.567 0.934753 142.645 2.80069 142.65 2.88934C142.65 2.89188 142.65 2.89414 142.65 2.89668L142.333 14.7915C142.332 14.8348 142.306 14.8762 142.263 14.8902C142.2 14.9111 142.134 14.8698 142.127 14.8063C142.034 13.9329 141.443 6.77943 141.121 4.55395C140.935 3.26577 140.582 2.21636 139.346 2.31264C138.268 2.39698 138.012 3.54748 138.149 4.94041C138.375 7.22877 138.723 14.6077 138.858 15.6947C138.865 15.7469 138.828 15.7944 138.775 15.8044L138.765 15.8063C138.707 15.8171 138.653 15.7807 138.643 15.725C138.493 14.8478 136.541 9.10402 136.106 6.91781C135.983 6.30128 135.607 5.28626 134.483 5.46237C133.579 5.60379 133.309 6.78862 133.38 7.69032C133.576 10.1955 135.526 15.9644 135.682 17.1829C135.682 17.1886 135.682 17.194 135.682 17.1996L135.349 24.0366C135.279 25.4661 136.768 28.943 138.105 30.712C138.598 31.364 139.07 31.784 139.436 31.784L143.16 32.7023" stroke="#00A857" stroke-width="1.86957" stroke-linecap="round"/>
<path d="M164.235 13.283C163.362 13.5676 156.637 14.7816 155.642 15.9767L153.428 18.5418C153.428 18.5421 153.428 18.5425 153.427 18.5428L152.617 19.0534M152.617 19.0534C152.617 19.0534 152.617 19.0533 152.617 19.0534ZM152.617 19.0534L147.758 21.5194C146.78 22.0158 146.387 23.2169 146.88 24.2021C147.373 25.1872 148.565 25.5833 149.543 25.0868L154.654 22.493C157.582 20.9325 154.475 25.1246 154.475 25.1246C154.475 25.1256 147.845 34.8592 147.845 34.8592M147.845 34.8592C147.845 34.8594 147.845 34.859 147.845 34.8592ZM147.845 34.8592C147.839 34.8713 146.899 36.7179 148.19 37.4969C149.355 38.2 150.61 36.6472 150.681 36.5575C150.683 36.5545 150.685 36.5518 150.687 36.5489L157.39 28.4946C157.419 28.4484 157.479 28.4331 157.527 28.4597L157.687 28.549C157.736 28.5763 157.756 28.6365 157.733 28.6878C157.352 29.5359 154.399 36.1151 153.406 38.4237C153.058 39.2336 152.753 40.2729 153.992 40.8826C155.352 41.5514 156.125 39.7824 156.163 39.6944C156.164 39.6919 156.165 39.6897 156.166 39.6871L161.092 30.2565C161.112 30.2167 161.155 30.1896 161.199 30.1952C161.265 30.2037 161.306 30.2713 161.283 30.3335C160.971 31.1884 159.003 36.6013 158.286 38.8173C157.87 40.0996 157.712 41.2331 158.864 41.6885C159.868 42.0851 160.617 41.1259 161.124 39.7675C161.953 37.5421 164.231 32.0534 164.611 30.957C164.629 30.9071 164.677 30.8727 164.729 30.8799C164.797 30.8892 164.838 30.9549 164.82 31.0184C164.557 31.9135 164.127 36.3724 163.53 38.5974C163.361 39.226 163.293 40.3862 164.377 40.6939C165.256 40.9434 166.034 39.9531 166.378 39.0816C167.331 36.6694 167.721 32.1979 168.13 30.974C168.133 30.9657 168.138 30.9527 168.142 30.9444L172.63 21.0593" stroke="#00A857" stroke-width="1.86957" stroke-linecap="round"/>
</g>
<defs>
<clipPath id="clip0_106_71">
<rect width="42" height="41" fill="white" transform="translate(0 1)"/>
</clipPath>
<clipPath id="clip1_106_71">
<rect width="41.1304" height="43" fill="white" transform="translate(132.435)"/>
</clipPath>
</defs>
</svg>
