<svg width="174" height="43" viewBox="0 0 174 43" fill="none" xmlns="http://www.w3.org/2000/svg">
<g clip-path="url(#clip0_106_225)">
<path fill-rule="evenodd" clip-rule="evenodd" d="M21.0009 1C32.5798 1 42 10.1967 42 21.5009C42 32.8044 32.5798 42 21.0009 42C17.0734 42 13.2622 40.9368 9.93982 38.9205L2.87598 41.128C2.44228 41.2638 1.96435 41.1476 1.64453 40.8266C1.32471 40.5061 1.2151 40.0356 1.36169 39.6097L3.63489 33.0159C1.25442 29.6088 0 25.6412 0 21.5009C0 10.1967 9.4213 1 21.0009 1ZM21.0009 3.38257C10.7569 3.38257 2.42285 11.5107 2.42285 21.5009C2.42285 25.3398 3.64587 29.0114 5.9585 32.1189C6.19171 32.4322 6.25464 32.8372 6.12805 33.2047L4.42603 38.1432L9.74597 36.4807C9.8659 36.4432 9.98959 36.4254 10.1125 36.4254C10.3464 36.4254 10.5777 36.4915 10.7776 36.6201C13.8165 38.581 17.3514 39.6174 21.0009 39.6174C31.2436 39.6174 39.5771 31.4904 39.5771 21.5009C39.5771 11.5107 31.2436 3.38257 21.0009 3.38257ZM12.639 11C13.0333 11 13.4269 11.0457 13.7704 11.0457C14.1169 11.0457 14.6098 10.8621 15.0989 11.9697C15.5917 13.0808 16.7734 15.8099 16.9197 16.0868C17.0691 16.3637 17.1676 16.6864 16.9698 17.0565C16.7733 17.4267 16.6753 17.659 16.379 17.984C16.0846 18.3067 15.7591 18.7045 15.4932 18.9538C15.2006 19.2307 14.8918 19.5305 15.2346 20.0843C15.5805 20.6392 16.7659 22.4532 18.5197 23.9245C20.7743 25.8111 22.6782 26.3984 23.2703 26.6753C23.8611 26.9522 24.2039 26.9076 24.5474 26.5368C24.8933 26.1666 26.0253 24.9171 26.4196 24.3621C26.8107 23.8083 27.2069 23.9016 27.7474 24.0858C28.288 24.2694 31.193 25.6122 31.7838 25.8891C32.3715 26.1666 32.7658 26.3051 32.9146 26.5368C33.0615 26.7662 33.0615 27.8767 32.5686 29.172C32.0758 30.4668 29.6637 31.7169 28.5831 31.8073C28.4847 31.8157 28.3951 31.8296 28.3092 31.846L28.2075 31.8669C27.4027 32.041 26.7359 32.3584 21.496 30.4216C15.4932 28.2017 11.7048 22.4203 11.4091 22.0501C11.3995 22.0382 11.3882 22.024 11.375 22.0075L11.2759 21.8815C10.7246 21.1709 9 18.7807 9 16.3162C9 13.5901 10.5251 12.2472 11.0657 11.6934C11.6056 11.1385 12.2448 11 12.639 11Z" fill="#00A857"/>
</g>
<g clip-path="url(#clip1_106_225)">
<path d="M150.745 12.7819L151.839 3.81071C151.839 3.81071 151.907 1.7946 150.399 1.66901C149.043 1.55648 148.59 3.43717 148.565 3.5449C148.565 3.54836 148.564 3.55132 148.564 3.55486L146.438 14.7402C146.431 14.7927 146.384 14.8315 146.33 14.8288L146.142 14.8193C146.089 14.8166 146.046 14.7749 146.045 14.7231C146.018 13.8442 145.803 5.24235 145.689 2.81498C145.649 1.96484 145.469 0.93457 144.086 0.93457C142.568 0.93457 142.646 2.8005 142.65 2.88915C142.65 2.8917 142.65 2.89396 142.651 2.8965L142.334 14.7913C142.332 14.8346 142.306 14.876 142.264 14.89C142.2 14.9109 142.135 14.8696 142.128 14.8061C142.035 13.9327 141.443 6.77925 141.121 4.55376C140.935 3.26559 140.583 2.21618 139.346 2.31246C138.268 2.3968 138.012 3.5473 138.149 4.94023C138.376 7.22858 138.723 14.6075 138.859 15.6945C138.865 15.7467 138.829 15.7942 138.776 15.8042L138.765 15.8061C138.708 15.8169 138.653 15.7805 138.644 15.7248C138.494 14.8476 136.541 9.10384 136.106 6.91763C135.984 6.30109 135.607 5.28608 134.484 5.46218C133.58 5.6036 133.31 6.78843 133.38 7.69014C133.577 10.1954 135.526 15.9642 135.682 17.1828C135.683 17.1884 135.683 17.1938 135.683 17.1994L135.35 24.0365C135.28 25.4659 136.769 28.9428 138.106 30.7118C138.598 31.3638 139.071 31.7838 139.436 31.7838L143.161 32.7021" stroke="#00A857" stroke-width="1.86957" stroke-linecap="round"/>
<path d="M164.236 13.2832C163.363 13.5679 156.638 14.7819 155.643 15.9769L153.429 18.542C153.429 18.5423 153.428 18.5427 153.428 18.5431L152.617 19.0536M152.617 19.0536C152.617 19.0537 152.618 19.0535 152.617 19.0536ZM152.617 19.0536L147.759 21.5196C146.781 22.0161 146.387 23.2172 146.88 24.2023C147.373 25.1875 148.566 25.5836 149.544 25.0871L154.654 22.4933C157.582 20.9327 154.476 25.1249 154.476 25.1249C154.476 25.1259 147.846 34.8595 147.846 34.8595M147.846 34.8595C147.846 34.8597 147.846 34.8592 147.846 34.8595ZM147.846 34.8595C147.84 34.8715 146.9 36.7181 148.19 37.4972C149.355 38.2002 150.611 36.6474 150.682 36.5577C150.684 36.5547 150.686 36.5521 150.688 36.5491L157.391 28.4949C157.42 28.4486 157.48 28.4333 157.528 28.46L157.687 28.5493C157.736 28.5766 157.756 28.6367 157.733 28.6881C157.353 29.5362 154.4 36.1154 153.407 38.4239C153.058 39.2339 152.754 40.2731 153.993 40.8828C155.353 41.5517 156.126 39.7826 156.163 39.6947C156.165 39.6921 156.166 39.69 156.167 39.6874L161.092 30.2567C161.113 30.217 161.155 30.1898 161.199 30.1955C161.266 30.204 161.306 30.2716 161.284 30.3338C160.972 31.1886 159.004 36.6016 158.286 38.8175C157.871 40.0998 157.713 41.2333 158.864 41.6887C159.869 42.0854 160.618 41.1261 161.125 39.7677C161.954 37.5423 164.231 32.0537 164.612 30.9572C164.629 30.9074 164.678 30.8729 164.73 30.8801C164.797 30.8894 164.839 30.9552 164.82 31.0187C164.558 31.9137 164.128 36.3726 163.531 38.5976C163.362 39.2263 163.293 40.3865 164.377 40.6941C165.257 40.9436 166.035 39.9533 166.379 39.0819C167.332 36.6697 167.722 32.1981 168.131 30.9742C168.134 30.966 168.139 30.9529 168.142 30.9447L172.631 21.0595" stroke="#00A857" stroke-width="1.86957" stroke-linecap="round"/>
</g>
<defs>
<clipPath id="clip0_106_225">
<rect width="42" height="41" fill="white" transform="translate(0 1)"/>
</clipPath>
<clipPath id="clip1_106_225">
<rect width="41.1304" height="43" fill="white" transform="translate(132.435)"/>
</clipPath>
</defs>
</svg>
