<svg width="245" height="32" viewBox="0 0 245 32" fill="none" xmlns="http://www.w3.org/2000/svg">
<path d="M24.8001 4.8H17.6001V0H29.6001V9.6H24.8001V4.8Z" fill="#11C76F"/>
<path d="M19.2 26.1464V5.0251H28.4076C30.3119 5.0251 31.9528 5.33689 33.3304 5.96047C34.708 6.56394 35.7716 7.43896 36.5212 8.58555C37.2708 9.73214 37.6456 11.1 37.6456 12.6891C37.6456 14.2581 37.2708 15.6159 36.5212 16.7625C35.7716 17.9091 34.708 18.7942 33.3304 19.4178C31.9528 20.0212 30.3119 20.323 28.4076 20.323H21.9349L24.1228 18.1203V26.1464H19.2ZM24.1228 18.6634L21.9349 16.3401H28.1341C29.6535 16.3401 30.788 16.0182 31.5375 15.3745C32.2871 14.7308 32.6619 13.8357 32.6619 12.6891C32.6619 11.5224 32.2871 10.6172 31.5375 9.97352C30.788 9.32983 29.6535 9.00798 28.1341 9.00798H21.9349L24.1228 6.68463V18.6634Z" fill="white"/>
<path d="M42.0343 26.1464V9.91318H46.7748V26.1464H42.0343ZM44.4046 7.65018C43.5334 7.65018 42.8244 7.39873 42.2774 6.89585C41.7304 6.39296 41.4569 5.76938 41.4569 5.0251C41.4569 4.28083 41.7304 3.65725 42.2774 3.15436C42.8244 2.65147 43.5334 2.40002 44.4046 2.40002C45.2757 2.40002 45.9847 2.64141 46.5317 3.12418C47.0787 3.58684 47.3522 4.19031 47.3522 4.93458C47.3522 5.71909 47.0787 6.37284 46.5317 6.89585C46.005 7.39873 45.2959 7.65018 44.4046 7.65018Z" fill="white"/>
<path d="M59.045 26.3878C57.5053 26.3878 56.1176 26.0458 54.8818 25.3619C53.646 24.678 52.6635 23.7124 51.9342 22.4653C51.2251 21.2181 50.8706 19.7396 50.8706 18.0298C50.8706 16.3401 51.2251 14.8717 51.9342 13.6245C52.6635 12.3773 53.646 11.4118 54.8818 10.7279C56.1176 10.0238 57.5053 9.67179 59.045 9.67179C60.4834 9.67179 61.709 9.97352 62.722 10.577C63.7552 11.1805 64.5453 12.0957 65.0922 13.3228C65.6392 14.5498 65.9127 16.1188 65.9127 18.0298C65.9127 19.9207 65.6291 21.4897 65.0618 22.7368C64.4946 23.9639 63.6944 24.8791 62.6612 25.4826C61.628 26.0861 60.4226 26.3878 59.045 26.3878ZM59.8655 22.5256C60.6353 22.5256 61.3342 22.3446 61.9623 21.9825C62.5903 21.6204 63.0866 21.1075 63.4513 20.4437C63.8362 19.7597 64.0287 18.9551 64.0287 18.0298C64.0287 17.0844 63.8362 16.2797 63.4513 15.6159C63.0866 14.9521 62.5903 14.4392 61.9623 14.0771C61.3342 13.715 60.6353 13.534 59.8655 13.534C59.0754 13.534 58.3663 13.715 57.7383 14.0771C57.1103 14.4392 56.6038 14.9521 56.2189 15.6159C55.8542 16.2797 55.6719 17.0844 55.6719 18.0298C55.6719 18.9551 55.8542 19.7597 56.2189 20.4437C56.6038 21.1075 57.1103 21.6204 57.7383 21.9825C58.3663 22.3446 59.0754 22.5256 59.8655 22.5256ZM63.9375 32V22.8575L64.2414 18.06L64.1502 13.2322V9.91318H68.678V32H63.9375Z" fill="white"/>
<path d="M80.8768 26.3878C79.5194 26.3878 78.3039 26.1263 77.2302 25.6033C76.1767 25.0803 75.3562 24.2857 74.7687 23.2196C74.1812 22.1334 73.8875 20.7554 73.8875 19.0859V9.91318H78.628V18.3919C78.628 19.7396 78.9116 20.7353 79.4789 21.379C80.0664 22.0026 80.8869 22.3144 81.9403 22.3144C82.6697 22.3144 83.3179 22.1635 83.8852 21.8618C84.4524 21.54 84.8981 21.0572 85.2223 20.4135C85.5464 19.7497 85.7085 18.9249 85.7085 17.9393V9.91318H90.449V26.1464H85.9516V21.6808L86.7721 22.9782C86.2251 24.1047 85.4147 24.9596 84.341 25.5429C83.2875 26.1062 82.1328 26.3878 80.8768 26.3878Z" fill="white"/>
<path d="M103.866 26.3878C102.002 26.3878 100.361 26.0257 98.9432 25.3016C97.5454 24.5774 96.4615 23.5917 95.6917 22.3446C94.9218 21.0773 94.5369 19.639 94.5369 18.0298C94.5369 16.4004 94.9117 14.9622 95.6613 13.715C96.4311 12.4477 97.4745 11.4621 98.7913 10.758C100.108 10.0339 101.597 9.67179 103.258 9.67179C104.859 9.67179 106.297 10.0138 107.573 10.6977C108.87 11.3615 109.893 12.327 110.643 13.5943C111.392 14.8415 111.767 16.3401 111.767 18.0901C111.767 18.2712 111.757 18.4824 111.737 18.7238C111.716 18.945 111.696 19.1563 111.676 19.3574H98.3962V16.6116H109.184L107.361 17.4263C107.361 16.5815 107.189 15.8473 106.844 15.2237C106.5 14.6001 106.024 14.1173 105.416 13.7754C104.808 13.4133 104.099 13.2322 103.289 13.2322C102.478 13.2322 101.759 13.4133 101.131 13.7754C100.523 14.1173 100.047 14.6102 99.7029 15.2538C99.3585 15.8774 99.1863 16.6217 99.1863 17.4867V18.2108C99.1863 19.0959 99.3788 19.8804 99.7637 20.5643C100.169 21.2282 100.726 21.7411 101.435 22.1032C102.164 22.4452 103.015 22.6161 103.988 22.6161C104.859 22.6161 105.618 22.4854 106.267 22.2239C106.935 21.9624 107.543 21.5701 108.09 21.0471L110.612 23.7627C109.863 24.6076 108.921 25.2613 107.786 25.724C106.652 26.1665 105.345 26.3878 103.866 26.3878Z" fill="white"/>
<path d="M126.349 26.5085C124.708 26.5085 123.179 26.247 121.76 25.724C120.363 25.1809 119.147 24.4165 118.114 23.4308C117.081 22.4451 116.27 21.2885 115.683 19.9609C115.116 18.6333 114.832 17.1749 114.832 15.5858C114.832 13.9966 115.116 12.5383 115.683 11.2106C116.27 9.883 117.081 8.72636 118.114 7.7407C119.167 6.75504 120.393 6.0007 121.791 5.4777C123.189 4.93458 124.718 4.66302 126.379 4.66302C128.223 4.66302 129.884 4.98487 131.363 5.62857C132.862 6.25215 134.118 7.17746 135.131 8.40451L131.971 11.3011C131.242 10.4764 130.431 9.86289 129.54 9.46058C128.648 9.03815 127.676 8.82694 126.623 8.82694C125.63 8.82694 124.718 8.98786 123.888 9.30971C123.057 9.63156 122.338 10.0942 121.73 10.6977C121.122 11.3011 120.646 12.0152 120.302 12.84C119.978 13.6647 119.816 14.58 119.816 15.5858C119.816 16.5915 119.978 17.5068 120.302 18.3315C120.646 19.1563 121.122 19.8704 121.73 20.4738C122.338 21.0773 123.057 21.54 123.888 21.8618C124.718 22.1836 125.63 22.3446 126.623 22.3446C127.676 22.3446 128.648 22.1434 129.54 21.7411C130.431 21.3187 131.242 20.685 131.971 19.8402L135.131 22.7368C134.118 23.9639 132.862 24.8992 131.363 25.5429C129.884 26.1866 128.213 26.5085 126.349 26.5085Z" fill="white"/>
<path d="M145.545 26.3878C144.188 26.3878 142.972 26.1263 141.899 25.6033C140.845 25.0803 140.025 24.2857 139.437 23.2196C138.85 22.1334 138.556 20.7554 138.556 19.0859V9.91318H143.297V18.3919C143.297 19.7396 143.58 20.7353 144.147 21.379C144.735 22.0026 145.555 22.3144 146.609 22.3144C147.338 22.3144 147.987 22.1635 148.554 21.8618C149.121 21.54 149.567 21.0572 149.891 20.4135C150.215 19.7497 150.377 18.9249 150.377 17.9393V9.91318H155.118V26.1464H150.62V21.6808L151.441 22.9782C150.894 24.1047 150.083 24.9596 149.01 25.5429C147.956 26.1062 146.801 26.3878 145.545 26.3878Z" fill="white"/>
<path d="M160.421 26.1464V3.75782H165.162V26.1464H160.421Z" fill="white"/>
<path d="M178.375 26.3878C176.45 26.3878 174.951 25.905 173.878 24.9395C172.804 23.9538 172.267 22.4954 172.267 20.5643V6.32255H177.008V20.504C177.008 21.1879 177.19 21.721 177.555 22.1032C177.919 22.4653 178.416 22.6463 179.044 22.6463C179.793 22.6463 180.431 22.4451 180.958 22.0428L182.234 25.3619C181.748 25.7039 181.161 25.9654 180.472 26.1464C179.803 26.3073 179.104 26.3878 178.375 26.3878ZM169.745 13.8961V10.2753H181.08V13.8961H169.745Z" fill="white"/>
<path d="M192.705 26.3878C191.348 26.3878 190.132 26.1263 189.059 25.6033C188.005 25.0803 187.185 24.2857 186.597 23.2196C186.01 22.1334 185.716 20.7554 185.716 19.0859V9.91318H190.456V18.3919C190.456 19.7396 190.74 20.7353 191.307 21.379C191.895 22.0026 192.715 22.3144 193.769 22.3144C194.498 22.3144 195.146 22.1635 195.714 21.8618C196.281 21.54 196.727 21.0572 197.051 20.4135C197.375 19.7497 197.537 18.9249 197.537 17.9393V9.91318H202.277V26.1464H197.78V21.6808L198.6 22.9782C198.053 24.1047 197.243 24.9596 196.169 25.5429C195.116 26.1062 193.961 26.3878 192.705 26.3878Z" fill="white"/>
<path d="M207.581 26.1464V9.91318H212.109V14.4995L211.471 13.1719C211.957 12.0253 212.737 11.1603 213.81 10.577C214.884 9.97352 216.191 9.67179 217.731 9.67179V14.0167C217.528 13.9966 217.346 13.9866 217.184 13.9866C217.021 13.9665 216.849 13.9564 216.667 13.9564C215.37 13.9564 214.317 14.3285 213.507 15.0728C212.716 15.797 212.321 16.9335 212.321 18.4824V26.1464H207.581Z" fill="white"/>
<path d="M230.421 26.1464V22.9782L230.117 22.2842V16.6116C230.117 15.6059 229.803 14.8214 229.175 14.2581C228.567 13.6949 227.625 13.4133 226.349 13.4133C225.478 13.4133 224.617 13.5541 223.766 13.8357C222.935 14.0972 222.226 14.4593 221.638 14.9219L219.937 11.6331C220.828 11.0095 221.902 10.5267 223.158 10.1847C224.414 9.84277 225.69 9.67179 226.987 9.67179C229.479 9.67179 231.413 10.2551 232.791 11.4218C234.169 12.5885 234.857 14.409 234.857 16.8832V26.1464H230.421ZM225.437 26.3878C224.161 26.3878 223.067 26.1766 222.155 25.7542C221.243 25.3116 220.545 24.7182 220.058 23.9739C219.572 23.2297 219.329 22.3949 219.329 21.4695C219.329 20.504 219.562 19.6591 220.028 18.935C220.514 18.2108 221.274 17.6476 222.307 17.2453C223.34 16.8229 224.687 16.6116 226.349 16.6116H230.694V19.3574H226.865C225.751 19.3574 224.981 19.5385 224.556 19.9005C224.151 20.2626 223.948 20.7152 223.948 21.2583C223.948 21.8618 224.181 22.3446 224.647 22.7067C225.133 23.0486 225.792 23.2196 226.622 23.2196C227.412 23.2196 228.121 23.0386 228.749 22.6765C229.377 22.2943 229.833 21.7411 230.117 21.0169L230.846 23.1894C230.502 24.2354 229.874 25.03 228.962 25.5731C228.05 26.1162 226.875 26.3878 225.437 26.3878Z" fill="white"/>
<path d="M240.059 26.1464V3.75782H244.8V26.1464H240.059Z" fill="white"/>
<path fill-rule="evenodd" clip-rule="evenodd" d="M9.86667 9.86667H19.7333V19.7333H9.86667V9.86667ZM17.2 0H17.6V4.8H24.8V9.6H29.6V10V29.6H0V0H17.2ZM5.05997 24.5402H24.7933V10V4.80684H17.2H5.05997V24.5402Z" fill="#11C76F"/>
</svg>
