<svg width="64" height="50" viewBox="0 0 64 50" fill="none" xmlns="http://www.w3.org/2000/svg">
<path d="M41.8917 8.10811H29.7295V0H49.9998V16.2162H41.8917V8.10811Z" fill="#11C76F"/>
<path d="M32.4321 44.166V8.48816H47.9855C51.2023 8.48816 53.9742 9.01483 56.3012 10.0682C58.6282 11.0875 60.4248 12.5656 61.691 14.5024C62.9572 16.4392 63.5903 18.7498 63.5903 21.4341C63.5903 24.0845 62.9572 26.3781 61.691 28.3149C60.4248 30.2517 58.6282 31.7467 56.3012 32.8001C53.9742 33.8195 51.2023 34.3291 47.9855 34.3291H37.0519L40.7478 30.6084V44.166H32.4321ZM40.7478 31.5259L37.0519 27.6013H47.5235C50.0901 27.6013 52.0065 27.0576 53.2727 25.9703C54.5388 24.883 55.1719 23.3709 55.1719 21.4341C55.1719 19.4634 54.5388 17.9343 53.2727 16.847C52.0065 15.7597 50.0901 15.216 47.5235 15.216H37.0519L40.7478 11.2914V31.5259Z" fill="white"/>
<path fill-rule="evenodd" clip-rule="evenodd" d="M16.6667 16.6667H33.3333V33.3333H16.6667V16.6667ZM50 0H50V16.8919V50H0V0H29.0541H29.7297V8.10811H41.8918V16.2162H50V0ZM8.54725 41.453H41.8806V16.8919V8.11966H29.0541H8.54725V41.453Z" fill="#11C76F"/>
</svg>
