<svg width="64" height="50" viewBox="0 0 64 50" fill="none" xmlns="http://www.w3.org/2000/svg">
<path d="M41.8917 8.10811H29.7295V0H49.9998V16.2162H41.8917V8.10811Z" fill="#11C76F"/>
<path d="M32.4326 44.1662V8.48828H47.986C51.2028 8.48828 53.9747 9.01496 56.3017 10.0683C58.6287 11.0877 60.4253 12.5658 61.6915 14.5026C62.9577 16.4394 63.5907 18.7499 63.5907 21.4343C63.5907 24.0846 62.9577 26.3782 61.6915 28.315C60.4253 30.2518 58.6287 31.7469 56.3017 32.8002C53.9747 33.8196 51.2028 34.3293 47.986 34.3293H37.0524L40.7483 30.6086V44.1662H32.4326ZM40.7483 31.526L37.0524 27.6014H47.524C50.0906 27.6014 52.007 27.0578 53.2731 25.9704C54.5393 24.8831 55.1724 23.3711 55.1724 21.4343C55.1724 19.4635 54.5393 17.9344 53.2731 16.8471C52.007 15.7598 50.0906 15.2161 47.524 15.2161H37.0524L40.7483 11.2915V31.526Z" fill="white"/>
<path fill-rule="evenodd" clip-rule="evenodd" d="M16.6667 16.6667H33.3333V33.3333H16.6667V16.6667ZM50 0H50V16.8919V50H0V0H29.0541H29.7297V8.10811H41.8918V16.2162H50V0ZM8.54725 41.453H41.8806V16.8919V8.11966H29.0541H8.54725V41.453Z" fill="#11C76F"/>
</svg>
