<svg width="64" height="50" viewBox="0 0 64 50" fill="none" xmlns="http://www.w3.org/2000/svg">
<path d="M41.8917 8.10811H29.7295V0H49.9998V16.2162H41.8917V8.10811Z" fill="#11C76F"/>
<path d="M32.4321 44.1662V8.48828H47.9855C51.2023 8.48828 53.9742 9.01496 56.3012 10.0683C58.6282 11.0877 60.4248 12.5658 61.691 14.5026C62.9572 16.4394 63.5903 18.7499 63.5903 21.4343C63.5903 24.0846 62.9572 26.3782 61.691 28.315C60.4248 30.2518 58.6282 31.7469 56.3012 32.8002C53.9742 33.8196 51.2023 34.3293 47.9855 34.3293H37.0519L40.7478 30.6086V44.1662H32.4321ZM40.7478 31.526L37.0519 27.6014H47.5235C50.0901 27.6014 52.0065 27.0578 53.2727 25.9704C54.5388 24.8831 55.1719 23.3711 55.1719 21.4343C55.1719 19.4635 54.5388 17.9344 53.2727 16.8471C52.0065 15.7598 50.0901 15.2161 47.5235 15.2161H37.0519L40.7478 11.2915V31.526Z" fill="white"/>
<path fill-rule="evenodd" clip-rule="evenodd" d="M16.6667 16.6667H33.3333V33.3333H16.6667V16.6667ZM50 0H50V16.8919V50H0V0H29.0541H29.7297V8.10811H41.8918V16.2162H50V0ZM8.54725 41.453H41.8806V16.8919V8.11966H29.0541H8.54725V41.453Z" fill="#11C76F"/>
</svg>
