<svg width="64" height="50" viewBox="0 0 64 50" fill="none" xmlns="http://www.w3.org/2000/svg">
<path d="M41.8918 8.10811H29.7297V0H49.9999V16.2162H41.8918V8.10811Z" fill="#11C76F"/>
<path d="M32.4324 44.1662V8.48828H47.9858C51.2025 8.48828 53.9744 9.01496 56.3014 10.0683C58.6285 11.0877 60.4251 12.5658 61.6912 14.5026C62.9574 16.4394 63.5905 18.7499 63.5905 21.4343C63.5905 24.0846 62.9574 26.3782 61.6912 28.315C60.4251 30.2518 58.6285 31.7469 56.3014 32.8002C53.9744 33.8196 51.2025 34.3293 47.9858 34.3293H37.0522L40.7481 30.6086V44.1662H32.4324ZM40.7481 31.526L37.0522 27.6014H47.5238C50.0904 27.6014 52.0067 27.0578 53.2729 25.9704C54.5391 24.8831 55.1722 23.3711 55.1722 21.4343C55.1722 19.4635 54.5391 17.9344 53.2729 16.8471C52.0067 15.7598 50.0904 15.2161 47.5238 15.2161H37.0522L40.7481 11.2915V31.526Z" fill="white"/>
<path fill-rule="evenodd" clip-rule="evenodd" d="M16.6667 16.6667H33.3333V33.3333H16.6667V16.6667ZM50 0H50V16.8919V50H0V0H29.0541H29.7297V8.10811H41.8918V16.2162H50V0ZM8.54725 41.453H41.8806V16.8919V8.11966H29.0541H8.54725V41.453Z" fill="#11C76F"/>
</svg>
