<svg width="245" height="32" viewBox="0 0 245 32" fill="none" xmlns="http://www.w3.org/2000/svg">
<path d="M24.8001 4.8H17.6001V0H29.6001V9.6H24.8001V4.8Z" fill="#11C76F"/>
<path d="M19.2002 26.1464V5.0251H28.4078C30.3121 5.0251 31.9531 5.33689 33.3307 5.96047C34.7083 6.56394 35.7719 7.43896 36.5214 8.58555C37.271 9.73214 37.6458 11.1 37.6458 12.6891C37.6458 14.2581 37.271 15.6159 36.5214 16.7625C35.7719 17.9091 34.7083 18.7942 33.3307 19.4178C31.9531 20.0212 30.3121 20.323 28.4078 20.323H21.9351L24.1231 18.1203V26.1464H19.2002ZM24.1231 18.6634L21.9351 16.3401H28.1343C29.6537 16.3401 30.7882 16.0182 31.5378 15.3745C32.2874 14.7308 32.6621 13.8357 32.6621 12.6891C32.6621 11.5224 32.2874 10.6172 31.5378 9.97352C30.7882 9.32983 29.6537 9.00798 28.1343 9.00798H21.9351L24.1231 6.68463V18.6634Z" fill="white"/>
<path d="M42.0345 26.1464V9.91318H46.7751V26.1464H42.0345ZM44.4048 7.65018C43.5337 7.65018 42.8246 7.39873 42.2776 6.89585C41.7306 6.39296 41.4571 5.76938 41.4571 5.0251C41.4571 4.28083 41.7306 3.65725 42.2776 3.15436C42.8246 2.65147 43.5337 2.40002 44.4048 2.40002C45.2759 2.40002 45.985 2.64141 46.532 3.12418C47.079 3.58684 47.3524 4.19031 47.3524 4.93458C47.3524 5.71909 47.079 6.37284 46.532 6.89585C46.0052 7.39873 45.2962 7.65018 44.4048 7.65018Z" fill="white"/>
<path d="M59.0452 26.3878C57.5056 26.3878 56.1178 26.0458 54.8821 25.3619C53.6463 24.678 52.6637 23.7124 51.9344 22.4653C51.2254 21.2181 50.8708 19.7396 50.8708 18.0298C50.8708 16.3401 51.2254 14.8717 51.9344 13.6245C52.6637 12.3773 53.6463 11.4118 54.8821 10.7279C56.1178 10.0238 57.5056 9.67179 59.0452 9.67179C60.4836 9.67179 61.7093 9.97352 62.7222 10.577C63.7554 11.1805 64.5455 12.0957 65.0925 13.3228C65.6395 14.5498 65.913 16.1188 65.913 18.0298C65.913 19.9207 65.6293 21.4897 65.0621 22.7368C64.4948 23.9639 63.6946 24.8791 62.6614 25.4826C61.6282 26.0861 60.4228 26.3878 59.0452 26.3878ZM59.8657 22.5256C60.6356 22.5256 61.3345 22.3446 61.9625 21.9825C62.5905 21.6204 63.0869 21.1075 63.4515 20.4437C63.8364 19.7597 64.0289 18.9551 64.0289 18.0298C64.0289 17.0844 63.8364 16.2797 63.4515 15.6159C63.0869 14.9521 62.5905 14.4392 61.9625 14.0771C61.3345 13.715 60.6356 13.534 59.8657 13.534C59.0756 13.534 58.3666 13.715 57.7385 14.0771C57.1105 14.4392 56.6041 14.9521 56.2191 15.6159C55.8545 16.2797 55.6722 17.0844 55.6722 18.0298C55.6722 18.9551 55.8545 19.7597 56.2191 20.4437C56.6041 21.1075 57.1105 21.6204 57.7385 21.9825C58.3666 22.3446 59.0756 22.5256 59.8657 22.5256ZM63.9377 32V22.8575L64.2416 18.06L64.1504 13.2322V9.91318H68.6783V32H63.9377Z" fill="white"/>
<path d="M80.877 26.3878C79.5197 26.3878 78.3041 26.1263 77.2304 25.6033C76.177 25.0803 75.3565 24.2857 74.769 23.2196C74.1815 22.1334 73.8877 20.7554 73.8877 19.0859V9.91318H78.6283V18.3919C78.6283 19.7396 78.9119 20.7353 79.4791 21.379C80.0666 22.0026 80.8871 22.3144 81.9406 22.3144C82.6699 22.3144 83.3182 22.1635 83.8854 21.8618C84.4527 21.54 84.8984 21.0572 85.2225 20.4135C85.5466 19.7497 85.7087 18.9249 85.7087 17.9393V9.91318H90.4493V26.1464H85.9518V21.6808L86.7723 22.9782C86.2253 24.1047 85.415 24.9596 84.3412 25.5429C83.2878 26.1062 82.133 26.3878 80.877 26.3878Z" fill="white"/>
<path d="M103.866 26.3878C102.003 26.3878 100.362 26.0257 98.9435 25.3016C97.5456 24.5774 96.4618 23.5917 95.6919 22.3446C94.9221 21.0773 94.5372 19.639 94.5372 18.0298C94.5372 16.4004 94.912 14.9622 95.6615 13.715C96.4314 12.4477 97.4747 11.4621 98.7915 10.758C100.108 10.0339 101.597 9.67179 103.259 9.67179C104.859 9.67179 106.297 10.0138 107.574 10.6977C108.87 11.3615 109.893 12.327 110.643 13.5943C111.392 14.8415 111.767 16.3401 111.767 18.0901C111.767 18.2712 111.757 18.4824 111.737 18.7238C111.717 18.945 111.696 19.1563 111.676 19.3574H98.3965V16.6116H109.184L107.361 17.4263C107.361 16.5815 107.189 15.8473 106.844 15.2237C106.5 14.6001 106.024 14.1173 105.416 13.7754C104.808 13.4133 104.099 13.2322 103.289 13.2322C102.479 13.2322 101.759 13.4133 101.131 13.7754C100.524 14.1173 100.048 14.6102 99.7032 15.2538C99.3588 15.8774 99.1866 16.6217 99.1866 17.4867V18.2108C99.1866 19.0959 99.379 19.8804 99.7639 20.5643C100.169 21.2282 100.726 21.7411 101.435 22.1032C102.165 22.4452 103.015 22.6161 103.988 22.6161C104.859 22.6161 105.619 22.4854 106.267 22.2239C106.936 21.9624 107.543 21.5701 108.09 21.0471L110.613 23.7627C109.863 24.6076 108.921 25.2613 107.786 25.724C106.652 26.1665 105.345 26.3878 103.866 26.3878Z" fill="white"/>
<path d="M126.349 26.5085C124.708 26.5085 123.179 26.247 121.761 25.724C120.363 25.1809 119.147 24.4165 118.114 23.4308C117.081 22.4451 116.271 21.2885 115.683 19.9609C115.116 18.6333 114.832 17.1749 114.832 15.5858C114.832 13.9966 115.116 12.5383 115.683 11.2106C116.271 9.883 117.081 8.72636 118.114 7.7407C119.168 6.75504 120.393 6.0007 121.791 5.4777C123.189 4.93458 124.718 4.66302 126.38 4.66302C128.223 4.66302 129.884 4.98487 131.363 5.62857C132.863 6.25215 134.119 7.17746 135.131 8.40451L131.971 11.3011C131.242 10.4764 130.431 9.86289 129.54 9.46058C128.649 9.03815 127.676 8.82694 126.623 8.82694C125.63 8.82694 124.718 8.98786 123.888 9.30971C123.057 9.63156 122.338 10.0942 121.73 10.6977C121.123 11.3011 120.646 12.0152 120.302 12.84C119.978 13.6647 119.816 14.58 119.816 15.5858C119.816 16.5915 119.978 17.5068 120.302 18.3315C120.646 19.1563 121.123 19.8704 121.73 20.4738C122.338 21.0773 123.057 21.54 123.888 21.8618C124.718 22.1836 125.63 22.3446 126.623 22.3446C127.676 22.3446 128.649 22.1434 129.54 21.7411C130.431 21.3187 131.242 20.685 131.971 19.8402L135.131 22.7368C134.119 23.9639 132.863 24.8992 131.363 25.5429C129.884 26.1866 128.213 26.5085 126.349 26.5085Z" fill="white"/>
<path d="M145.546 26.3878C144.188 26.3878 142.973 26.1263 141.899 25.6033C140.846 25.0803 140.025 24.2857 139.438 23.2196C138.85 22.1334 138.556 20.7554 138.556 19.0859V9.91318H143.297V18.3919C143.297 19.7396 143.58 20.7353 144.148 21.379C144.735 22.0026 145.556 22.3144 146.609 22.3144C147.339 22.3144 147.987 22.1635 148.554 21.8618C149.121 21.54 149.567 21.0572 149.891 20.4135C150.215 19.7497 150.377 18.9249 150.377 17.9393V9.91318H155.118V26.1464H150.62V21.6808L151.441 22.9782C150.894 24.1047 150.084 24.9596 149.01 25.5429C147.956 26.1062 146.802 26.3878 145.546 26.3878Z" fill="white"/>
<path d="M160.421 26.1464V3.75782H165.162V26.1464H160.421Z" fill="white"/>
<path d="M178.375 26.3878C176.451 26.3878 174.952 25.905 173.878 24.9395C172.804 23.9538 172.267 22.4954 172.267 20.5643V6.32255H177.008V20.504C177.008 21.1879 177.19 21.721 177.555 22.1032C177.919 22.4653 178.416 22.6463 179.044 22.6463C179.793 22.6463 180.432 22.4451 180.958 22.0428L182.235 25.3619C181.748 25.7039 181.161 25.9654 180.472 26.1464C179.803 26.3073 179.105 26.3878 178.375 26.3878ZM169.745 13.8961V10.2753H181.08V13.8961H169.745Z" fill="white"/>
<path d="M192.705 26.3878C191.348 26.3878 190.133 26.1263 189.059 25.6033C188.005 25.0803 187.185 24.2857 186.597 23.2196C186.01 22.1334 185.716 20.7554 185.716 19.0859V9.91318H190.457V18.3919C190.457 19.7396 190.74 20.7353 191.308 21.379C191.895 22.0026 192.716 22.3144 193.769 22.3144C194.498 22.3144 195.147 22.1635 195.714 21.8618C196.281 21.54 196.727 21.0572 197.051 20.4135C197.375 19.7497 197.537 18.9249 197.537 17.9393V9.91318H202.278V26.1464H197.78V21.6808L198.601 22.9782C198.054 24.1047 197.243 24.9596 196.17 25.5429C195.116 26.1062 193.961 26.3878 192.705 26.3878Z" fill="white"/>
<path d="M207.581 26.1464V9.91318H212.109V14.4995L211.471 13.1719C211.957 12.0253 212.737 11.1603 213.811 10.577C214.884 9.97352 216.191 9.67179 217.731 9.67179V14.0167C217.528 13.9966 217.346 13.9866 217.184 13.9866C217.022 13.9665 216.85 13.9564 216.667 13.9564C215.371 13.9564 214.317 14.3285 213.507 15.0728C212.717 15.797 212.322 16.9335 212.322 18.4824V26.1464H207.581Z" fill="white"/>
<path d="M230.421 26.1464V22.9782L230.117 22.2842V16.6116C230.117 15.6059 229.803 14.8214 229.175 14.2581C228.567 13.6949 227.625 13.4133 226.349 13.4133C225.478 13.4133 224.617 13.5541 223.766 13.8357C222.935 14.0972 222.226 14.4593 221.639 14.9219L219.937 11.6331C220.828 11.0095 221.902 10.5267 223.158 10.1847C224.414 9.84277 225.69 9.67179 226.987 9.67179C229.479 9.67179 231.414 10.2551 232.791 11.4218C234.169 12.5885 234.858 14.409 234.858 16.8832V26.1464H230.421ZM225.437 26.3878C224.161 26.3878 223.067 26.1766 222.155 25.7542C221.244 25.3116 220.545 24.7182 220.059 23.9739C219.572 23.2297 219.329 22.3949 219.329 21.4695C219.329 20.504 219.562 19.6591 220.028 18.935C220.514 18.2108 221.274 17.6476 222.307 17.2453C223.34 16.8229 224.688 16.6116 226.349 16.6116H230.694V19.3574H226.865C225.751 19.3574 224.981 19.5385 224.556 19.9005C224.151 20.2626 223.948 20.7152 223.948 21.2583C223.948 21.8618 224.181 22.3446 224.647 22.7067C225.133 23.0486 225.792 23.2196 226.622 23.2196C227.412 23.2196 228.122 23.0386 228.75 22.6765C229.378 22.2943 229.833 21.7411 230.117 21.0169L230.846 23.1894C230.502 24.2354 229.874 25.03 228.962 25.5731C228.051 26.1162 226.876 26.3878 225.437 26.3878Z" fill="white"/>
<path d="M240.06 26.1464V3.75782H244.8V26.1464H240.06Z" fill="white"/>
<path fill-rule="evenodd" clip-rule="evenodd" d="M9.86667 9.86667H19.7333V19.7333H9.86667V9.86667ZM17.2 0H17.6V4.8H24.8V9.6H29.6V10V29.6H0V0H17.2ZM5.05997 24.5402H24.7933V10V4.80684H17.2H5.05997V24.5402Z" fill="#11C76F"/>
</svg>
