<svg width="64" height="50" viewBox="0 0 64 50" fill="none" xmlns="http://www.w3.org/2000/svg">
<path d="M41.8919 8.10811H29.7297V0H50V16.2162H41.8919V8.10811Z" fill="#11C76F"/>
<path d="M32.4324 44.166V8.48816H47.9858C51.2025 8.48816 53.9744 9.01483 56.3014 10.0682C58.6285 11.0875 60.4251 12.5656 61.6912 14.5024C62.9574 16.4392 63.5905 18.7498 63.5905 21.4341C63.5905 24.0845 62.9574 26.3781 61.6912 28.3149C60.4251 30.2517 58.6285 31.7467 56.3014 32.8001C53.9744 33.8195 51.2025 34.3291 47.9858 34.3291H37.0522L40.7481 30.6084V44.166H32.4324ZM40.7481 31.5259L37.0522 27.6013H47.5238C50.0904 27.6013 52.0067 27.0576 53.2729 25.9703C54.5391 24.883 55.1722 23.3709 55.1722 21.4341C55.1722 19.4634 54.5391 17.9343 53.2729 16.847C52.0067 15.7597 50.0904 15.216 47.5238 15.216H37.0522L40.7481 11.2914V31.5259Z" fill="white"/>
<path fill-rule="evenodd" clip-rule="evenodd" d="M16.6667 16.6667H33.3333V33.3333H16.6667V16.6667ZM50 0H50V16.8919V50H0V0H29.0541H29.7297V8.10811H41.8918V16.2162H50V0ZM8.54725 41.453H41.8806V16.8919V8.11966H29.0541H8.54725V41.453Z" fill="#11C76F"/>
</svg>
