<svg width="64" height="50" viewBox="0 0 64 50" fill="none" xmlns="http://www.w3.org/2000/svg">
<path d="M41.8917 8.10811H29.7295V0H49.9998V16.2162H41.8917V8.10811Z" fill="#11C76F"/>
<path d="M32.4326 44.166V8.48816H47.986C51.2028 8.48816 53.9747 9.01483 56.3017 10.0682C58.6287 11.0875 60.4253 12.5656 61.6915 14.5024C62.9577 16.4392 63.5907 18.7498 63.5907 21.4341C63.5907 24.0845 62.9577 26.3781 61.6915 28.3149C60.4253 30.2517 58.6287 31.7467 56.3017 32.8001C53.9747 33.8195 51.2028 34.3291 47.986 34.3291H37.0524L40.7483 30.6084V44.166H32.4326ZM40.7483 31.5259L37.0524 27.6013H47.524C50.0906 27.6013 52.007 27.0576 53.2731 25.9703C54.5393 24.883 55.1724 23.3709 55.1724 21.4341C55.1724 19.4634 54.5393 17.9343 53.2731 16.847C52.007 15.7597 50.0906 15.216 47.524 15.216H37.0524L40.7483 11.2914V31.5259Z" fill="white"/>
<path fill-rule="evenodd" clip-rule="evenodd" d="M16.6667 16.6667H33.3333V33.3333H16.6667V16.6667ZM50 0H50V16.8919V50H0V0H29.0541H29.7297V8.10811H41.8918V16.2162H50V0ZM8.54725 41.453H41.8806V16.8919V8.11966H29.0541H8.54725V41.453Z" fill="#11C76F"/>
</svg>
