<svg width="9" height="15" viewBox="0 0 9 15" fill="none" xmlns="http://www.w3.org/2000/svg">
<path fill-rule="evenodd" clip-rule="evenodd" d="M6.29413 13.0433C6.56202 13.1507 6.83673 13.2396 7.11629 13.3095V1.69052C6.83673 1.76041 6.56202 1.84927 6.29413 1.95672C5.54236 2.25825 4.85927 2.70021 4.28389 3.25736C3.7085 3.81451 3.25208 4.47595 2.94068 5.2039C2.62928 5.93185 2.46901 6.7121 2.46901 7.5C2.46901 8.2879 2.62928 9.0681 2.94068 9.7961C3.25208 10.5241 3.7085 11.1855 4.28389 11.7426C4.85927 12.2998 5.54235 12.7417 6.29413 13.0433ZM7.11629 0.15153C7.6249 0.0510098 8.14385 0 8.66538 0V15C8.14385 15 7.6249 14.949 7.11629 14.8485C6.63307 14.753 6.15915 14.6127 5.70132 14.4291C4.7616 14.0522 3.90775 13.4997 3.18851 12.8033C2.46928 12.1069 1.89875 11.2801 1.50951 10.3701C1.12026 9.4602 0.919922 8.4849 0.919922 7.5C0.919922 6.5151 1.12026 5.53982 1.50951 4.62987C1.89875 3.71993 2.46928 2.89314 3.18851 2.1967C3.90775 1.50026 4.7616 0.94781 5.70132 0.5709C6.15915 0.38726 6.63307 0.24704 7.11629 0.15153Z" fill="#231F20"/>
</svg>
